<?xml version="1.0" encoding="UTF-8" standalone="no"?>
<!-- Created with Inkscape (http://www.inkscape.org/) -->

<svg
   width="512"
   height="512"
   viewBox="0 0 135.46667 135.46666"
   version="1.1"
   id="svg1"
   xmlns="http://www.w3.org/2000/svg"
   xmlns:svg="http://www.w3.org/2000/svg">
  <defs
     id="defs1" />
  <g
     id="layer1">
    <g
       transform="matrix(0.16478136,0,0,0.16478136,-105.78703,-90.988898)"
       id="g4">
      <path
         d="m 898.78802,746.13672 c 0,4.92187 -2.13281,9.59765 -6.39843,14.02734 -4.26563,4.26563 -8.85938,6.39844 -13.78125,6.39844 -8.36719,0 -17.47266,-7.21875 -27.31641,-21.65625 -10.17187,-15.09375 -21.41015,-22.64063 -33.71484,-22.64063 -15.91407,0 -26.08594,8.20313 -30.51563,24.60938 -2.29687,8.53125 -3.44531,30.35156 -3.44531,65.46094 v 16.24218 h 58.07812 v 17.71875 h -58.07812 v 81.21094 c 13.94531,5.41407 23.05078,8.1211 27.31641,8.1211 12.96093,0 20.7539,-8.1211 23.3789,-24.36329 h 7.62891 c 0,36.58594 -15.58594,54.87891 -46.75781,54.87891 -3.60938,0 -7.46485,-0.32812 -11.56641,-0.98437 -0.16406,5.25 -0.16406,15.01172 0,29.28515 0,20.99999 2.29687,34.28909 6.89062,39.86719 6.07031,7.2187 14.19141,10.8281 24.36329,10.8281 h 20.42578 V 1054 H 700.68256 v -8.8594 h 10.08984 c 15.09375,0 24.85547,-6.0703 29.28516,-18.2109 1.96875,-5.4141 2.95312,-16.2422 2.95312,-32.48439 v -44.78906 c -11.48437,-5.57813 -20.67187,-8.36719 -27.5625,-8.36719 -13.125,0 -20.75391,7.95703 -22.88672,23.8711 h -7.875 c 0.98437,-35.92969 16.40625,-53.89454 46.26563,-53.89454 4.42969,0 8.44922,0.49219 12.05859,1.47657 v -66.44532 h -43.80469 v -17.71875 h 43.80469 V 813.8125 c 0,-44.29687 14.68359,-75.96094 44.05078,-94.99219 14.76563,-9.51563 31.41797,-14.27344 49.95703,-14.27344 17.22657,0 33.0586,5.57813 47.4961,16.73438 9.51562,7.38281 14.27343,15.66797 14.27343,24.85547 z"
         id="text1"
         style="font-size:504px;font-family:'Times New Roman', 'Times New Roman_MSFontService', sans-serif;fill:#68643c"
         aria-label="ᵮ" />
      <path
         d="m 1403.3746,759.16 h -192.528 v 107.352 h 150.192 v 37.8 h -150.192 V 1054 h -40.32 V 721.36 h 232.848 z"
         id="text2"
         style="font-size:504px;font-family:'Work Sans', 'Work Sans_MSFontService', sans-serif;fill:#68643c"
         aria-label="F" />
      <path
         d="m 864,1116 c 70.812,104.4 147.54,96.88 203.04,96.88 55.5,0 118.87,-68.29 129.96,-96.88"
         stroke="#042433"
         stroke-width="27.5"
         stroke-linecap="butt"
         stroke-linejoin="miter"
         stroke-miterlimit="8"
         stroke-opacity="1"
         fill="none"
         fill-rule="evenodd"
         id="path2"
         style="fill:none;fill-opacity:1;fill-rule:evenodd;stroke:#68643c;stroke-opacity:1" />
      <path
         d="m 1170.8,1108.56 44.12,-18.65 1.17,46.93 z"
         stroke="#000000"
         stroke-width="27.5"
         stroke-linecap="butt"
         stroke-linejoin="miter"
         stroke-miterlimit="8"
         stroke-opacity="1"
         fill="#000000"
         fill-rule="evenodd"
         fill-opacity="1"
         id="path3"
         style="stroke:#68643c;stroke-opacity:1" />
    </g>
  </g>
</svg>
